<svg xmlns="http://www.w3.org/2000/svg" xmlns:xlink="http://www.w3.org/1999/xlink" viewBox="0 0 1016.93 978.49"><defs><style>.cls-1,.cls-10,.cls-11,.cls-12,.cls-14,.cls-20,.cls-6,.cls-9{fill:none;}.cls-2{fill:#fff;}.cls-3{clip-path:url(#clip-path);}.cls-4{fill:#edf4fe;}.cls-5{clip-path:url(#clip-path-2);}.cls-6{stroke:#edf4fe;}.cls-10,.cls-11,.cls-12,.cls-14,.cls-20,.cls-6,.cls-9{stroke-miterlimit:10;}.cls-7{clip-path:url(#clip-path-3);}.cls-8{clip-path:url(#clip-path-4);}.cls-10,.cls-11,.cls-12,.cls-9{stroke:#96d0d4;}.cls-9{stroke-dasharray:10 10;}.cls-10{stroke-dasharray:9.64 9.64;}.cls-11{stroke-dasharray:9.53 9.53;}.cls-12{stroke-dasharray:10.56 10.56;}.cls-13{fill:#96d0d4;}.cls-14,.cls-20{stroke:#6387a5;}.cls-15{fill:#f58ec2;}.cls-16{fill:#6387a5;}.cls-17{clip-path:url(#clip-path-5);}.cls-18{clip-path:url(#clip-path-6);}.cls-19{clip-path:url(#clip-path-7);}.cls-20{stroke-width:3px;}</style><clipPath id="clip-path" transform="translate(171.8 183.7)"><rect class="cls-1" width="750" height="500"/></clipPath><clipPath id="clip-path-2" transform="translate(171.8 183.7)"><circle class="cls-1" cx="359.95" cy="238.91" r="113.93" transform="translate(66 555.52) rotate(-80.7)"/></clipPath><clipPath id="clip-path-3" transform="translate(171.8 183.7)"><circle class="cls-1" cx="605.49" cy="35.36" r="129.73" transform="translate(472.73 627.18) rotate(-80.7)"/></clipPath><clipPath id="clip-path-4" transform="translate(171.8 183.7)"><circle class="cls-1" cx="273.84" cy="453.66" r="78.74" transform="translate(-218.12 650.58) rotate(-80.7)"/></clipPath><clipPath id="clip-path-5" transform="translate(171.8 183.7)"><circle class="cls-1" cx="123.25" cy="459.11" r="67.15" transform="translate(-349.74 506.54) rotate(-80.7)"/></clipPath><clipPath id="clip-path-6" transform="translate(171.8 183.7)"><circle class="cls-1" cx="182.83" cy="91.16" r="58.68" transform="translate(63.32 256.84) rotate(-80.7)"/></clipPath><clipPath id="clip-path-7" transform="translate(171.8 183.7)"><circle class="cls-1" cx="595.88" cy="282.71" r="58.68" transform="translate(220.58 825.07) rotate(-80.7)"/></clipPath></defs><g id="BACKGROUND"><rect class="cls-2" x="171.8" y="183.7" width="750" height="500"/></g><g id="OBJECTS"><g class="cls-3"><rect class="cls-2" x="171.8" y="183.7" width="750" height="500"/><path class="cls-4" d="M512.75,537.21H792.56V270.57a196.42,196.42,0,0,0-112.16-35C571.39,235.61,483,324,483,433A196.45,196.45,0,0,0,512.75,537.21Z" transform="translate(171.8 183.7)"/><path class="cls-4" d="M-27.62-41.32V296.19a252.55,252.55,0,0,0,96.44,19c139.86,0,253.24-113.38,253.24-253.24a252.36,252.36,0,0,0-22-103.3Z" transform="translate(171.8 183.7)"/><path class="cls-4" d="M291.43,541.48c.3-3.63.46-7.3.46-11a133.55,133.55,0,0,0-267.09,0c0,3.71.16,7.38.46,11Z" transform="translate(171.8 183.7)"/><g class="cls-5"><line class="cls-6" x1="681.69" y1="306.97" x2="361.52" y2="627.15"/><line class="cls-6" x1="689.8" y1="315.08" x2="369.62" y2="635.25"/><line class="cls-6" x1="697.91" y1="323.18" x2="377.73" y2="643.36"/><line class="cls-6" x1="706.02" y1="331.29" x2="385.84" y2="651.47"/><line class="cls-6" x1="714.12" y1="339.4" x2="393.94" y2="659.58"/><line class="cls-6" x1="722.23" y1="347.51" x2="402.05" y2="667.68"/><line class="cls-6" x1="730.34" y1="355.61" x2="410.16" y2="675.79"/><line class="cls-6" x1="738.45" y1="363.72" x2="418.27" y2="683.9"/><line class="cls-6" x1="746.55" y1="371.83" x2="426.37" y2="692.01"/><line class="cls-6" x1="754.66" y1="379.93" x2="434.48" y2="700.11"/><line class="cls-6" x1="762.77" y1="388.04" x2="442.59" y2="708.22"/><line class="cls-6" x1="770.87" y1="396.15" x2="450.7" y2="716.33"/><line class="cls-6" x1="584.63" y1="209.91" x2="264.46" y2="530.09"/><line class="cls-6" x1="592.74" y1="218.02" x2="272.56" y2="538.19"/><line class="cls-6" x1="600.85" y1="226.12" x2="280.67" y2="546.3"/><line class="cls-6" x1="608.96" y1="234.23" x2="288.78" y2="554.41"/><line class="cls-6" x1="617.06" y1="242.34" x2="296.88" y2="562.52"/><line class="cls-6" x1="625.17" y1="250.44" x2="304.99" y2="570.62"/><line class="cls-6" x1="633.28" y1="258.55" x2="313.1" y2="578.73"/><line class="cls-6" x1="641.39" y1="266.66" x2="321.21" y2="586.84"/><line class="cls-6" x1="649.49" y1="274.77" x2="329.31" y2="594.95"/><line class="cls-6" x1="657.6" y1="282.87" x2="337.42" y2="603.05"/><line class="cls-6" x1="665.71" y1="290.98" x2="345.53" y2="611.16"/><line class="cls-6" x1="673.81" y1="299.09" x2="353.64" y2="619.27"/></g><g class="cls-7"><line class="cls-6" x1="927.23" y1="97.41" x2="607.06" y2="417.59"/><line class="cls-6" x1="935.34" y1="105.52" x2="615.16" y2="425.7"/><line class="cls-6" x1="943.45" y1="113.63" x2="623.27" y2="433.81"/><line class="cls-6" x1="951.56" y1="121.74" x2="631.38" y2="441.91"/><line class="cls-6" x1="959.66" y1="129.84" x2="639.49" y2="450.02"/><line class="cls-6" x1="967.77" y1="137.95" x2="647.59" y2="458.13"/><line class="cls-6" x1="975.88" y1="146.06" x2="655.7" y2="466.24"/><line class="cls-6" x1="983.99" y1="154.17" x2="663.81" y2="474.34"/><line class="cls-6" x1="992.09" y1="162.27" x2="671.92" y2="482.45"/><line class="cls-6" x1="1000.2" y1="170.38" x2="680.02" y2="490.56"/><line class="cls-6" x1="1008.31" y1="178.49" x2="688.13" y2="498.67"/><line class="cls-6" x1="1016.42" y1="186.59" x2="696.24" y2="506.77"/><line class="cls-6" x1="830.17" y1="0.35" x2="510" y2="320.53"/><line class="cls-6" x1="838.28" y1="8.46" x2="518.1" y2="328.64"/><line class="cls-6" x1="846.39" y1="16.57" x2="526.21" y2="336.75"/><line class="cls-6" x1="854.5" y1="24.68" x2="534.32" y2="344.85"/><line class="cls-6" x1="862.6" y1="32.78" x2="542.43" y2="352.96"/><line class="cls-6" x1="870.71" y1="40.89" x2="550.53" y2="361.07"/><line class="cls-6" x1="878.82" y1="49" x2="558.64" y2="369.18"/><line class="cls-6" x1="886.93" y1="57.11" x2="566.75" y2="377.28"/><line class="cls-6" x1="895.03" y1="65.21" x2="574.86" y2="385.39"/><line class="cls-6" x1="903.14" y1="73.32" x2="582.96" y2="393.5"/><line class="cls-6" x1="911.25" y1="81.43" x2="591.07" y2="401.61"/><line class="cls-6" x1="919.36" y1="89.53" x2="599.18" y2="409.71"/></g><g class="cls-8"><line class="cls-6" x1="605.35" y1="521.02" x2="285.18" y2="841.2"/><line class="cls-6" x1="613.46" y1="529.13" x2="293.28" y2="849.31"/><line class="cls-6" x1="621.57" y1="537.24" x2="301.39" y2="857.42"/><line class="cls-6" x1="629.68" y1="545.35" x2="309.5" y2="865.52"/><line class="cls-6" x1="637.78" y1="553.45" x2="317.61" y2="873.63"/><line class="cls-6" x1="645.89" y1="561.56" x2="325.71" y2="881.74"/><line class="cls-6" x1="654" y1="569.67" x2="333.82" y2="889.85"/><line class="cls-6" x1="662.11" y1="577.78" x2="341.93" y2="897.95"/><line class="cls-6" x1="670.21" y1="585.88" x2="350.03" y2="906.06"/><line class="cls-6" x1="678.32" y1="593.99" x2="358.14" y2="914.17"/><line class="cls-6" x1="686.43" y1="602.1" x2="366.25" y2="922.28"/><line class="cls-6" x1="694.54" y1="610.2" x2="374.36" y2="930.38"/><line class="cls-6" x1="508.29" y1="423.96" x2="188.12" y2="744.14"/><line class="cls-6" x1="516.4" y1="432.07" x2="196.22" y2="752.25"/><line class="cls-6" x1="524.51" y1="440.18" x2="204.33" y2="760.36"/><line class="cls-6" x1="532.62" y1="448.29" x2="212.44" y2="768.46"/><line class="cls-6" x1="540.72" y1="456.39" x2="220.55" y2="776.57"/><line class="cls-6" x1="548.83" y1="464.5" x2="228.65" y2="784.68"/><line class="cls-6" x1="556.94" y1="472.61" x2="236.76" y2="792.79"/><line class="cls-6" x1="565.05" y1="480.72" x2="244.87" y2="800.89"/><line class="cls-6" x1="573.15" y1="488.82" x2="252.97" y2="809"/><line class="cls-6" x1="581.26" y1="496.93" x2="261.08" y2="817.11"/><line class="cls-6" x1="589.37" y1="505.04" x2="269.19" y2="825.22"/><line class="cls-6" x1="597.48" y1="513.14" x2="277.3" y2="833.32"/></g><circle class="cls-9" cx="506.74" cy="32.92" r="67.23" transform="translate(564.15 711.38) rotate(-80.7)"/><circle class="cls-9" cx="506.74" cy="32.92" r="59.66" transform="translate(476.12 682.34) rotate(-70.22)"/><circle class="cls-9" cx="506.74" cy="32.92" r="51.8" transform="translate(564.15 711.38) rotate(-80.7)"/><circle class="cls-10" cx="1.3" cy="121.53" r="36.82" transform="matrix(0.17, -0.99, 0.99, 0.17, 53.03, 286.36)"/><circle class="cls-11" cx="1.3" cy="121.53" r="30.34" transform="translate(70.12 240.67) rotate(-57.3)"/><circle class="cls-12" cx="1.3" cy="121.53" r="23.53" transform="translate(52.92 287.05) rotate(-80.78)"/><circle class="cls-9" cx="475.76" cy="493.47" r="67.23" transform="translate(83.68 1066.92) rotate(-80.7)"/><circle class="cls-9" cx="475.76" cy="493.47" r="59.66" transform="translate(22.22 957.92) rotate(-70.22)"/><circle class="cls-9" cx="475.76" cy="493.47" r="51.8" transform="translate(83.68 1066.92) rotate(-80.7)"/><circle class="cls-13" cx="534.82" cy="-11.48" r="58.75" transform="translate(631.51 701.87) rotate(-80.7)"/><circle class="cls-14" cx="543.84" cy="-5.76" r="58.75" transform="translate(633.42 715.57) rotate(-80.7)"/><circle class="cls-15" cx="103.02" cy="17.52" r="71.33" transform="translate(240.88 300.05) rotate(-80.7)"/><path class="cls-15" d="M537,514.7a78.63,78.63,0,1,1,157.26,0h31.45a110.08,110.08,0,1,0-220.16,0Z" transform="translate(171.8 183.7)"/><path class="cls-15" d="M565.49,514.08a50.11,50.11,0,1,1,100.22,0h20a70.16,70.16,0,0,0-140.32,0Z" transform="translate(171.8 183.7)"/><circle class="cls-14" cx="724.48" cy="683.63" r="71.77"/><circle class="cls-14" cx="552.68" cy="499.93" r="96.58" transform="translate(23.05 431.85) rotate(-22.39)"/><path class="cls-14" d="M552.68,584.11a84.18,84.18,0,1,1,84.18-84.18A84.27,84.27,0,0,1,552.68,584.11Z" transform="translate(171.8 183.7)"/><circle class="cls-14" cx="724.48" cy="683.63" r="71.77"/><circle class="cls-14" cx="724.48" cy="683.63" r="58.46"/><circle class="cls-14" cx="724.48" cy="683.63" r="46.27"/><circle class="cls-14" cx="921.8" cy="320.65" r="66.85"/><circle class="cls-14" cx="750" cy="136.95" r="89.96" transform="translate(176.16 479.65) rotate(-22.39)"/><path class="cls-14" d="M750,215.35A78.4,78.4,0,1,1,828.4,137,78.49,78.49,0,0,1,750,215.35Z" transform="translate(171.8 183.7)"/><circle class="cls-14" cx="921.8" cy="320.65" r="66.85"/><circle class="cls-14" cx="921.8" cy="320.65" r="54.45"/><circle class="cls-14" cx="921.8" cy="320.65" r="43.09"/><circle class="cls-14" cx="204.76" cy="213.06" r="71.77"/><circle class="cls-14" cx="32.96" cy="29.36" r="96.58" transform="translate(163.1 198.47) rotate(-22.39)"/><path class="cls-14" d="M33,113.54a84.18,84.18,0,1,1,84.18-84.18A84.28,84.28,0,0,1,33,113.54Z" transform="translate(171.8 183.7)"/><circle class="cls-14" cx="204.76" cy="213.06" r="71.77"/><circle class="cls-14" cx="204.76" cy="213.06" r="58.46"/><circle class="cls-14" cx="204.76" cy="213.06" r="46.27"/><circle class="cls-16" cx="545.07" cy="190.19" r="1.3"/><circle class="cls-16" cx="556.61" cy="190.19" r="1.3"/><circle class="cls-16" cx="568.15" cy="190.19" r="1.3"/><circle class="cls-16" cx="579.69" cy="190.19" r="1.3"/><circle class="cls-16" cx="591.23" cy="190.19" r="1.3"/><circle class="cls-16" cx="602.77" cy="190.19" r="1.3"/><circle class="cls-16" cx="614.31" cy="190.19" r="1.3"/><circle class="cls-16" cx="625.85" cy="190.19" r="1.3"/><circle class="cls-16" cx="637.39" cy="190.19" r="1.3"/><circle class="cls-16" cx="648.93" cy="190.19" r="1.3"/><circle class="cls-16" cx="660.47" cy="190.19" r="1.3"/><circle class="cls-16" cx="672" cy="190.19" r="1.3"/><circle class="cls-16" cx="683.54" cy="190.19" r="1.3"/><circle class="cls-16" cx="695.08" cy="190.19" r="1.3"/><circle class="cls-16" cx="706.62" cy="190.19" r="1.3"/><circle class="cls-16" cx="718.16" cy="190.19" r="1.3"/><circle class="cls-16" cx="729.7" cy="190.19" r="1.3"/><circle class="cls-16" cx="741.24" cy="190.19" r="1.3"/><circle class="cls-16" cx="752.78" cy="190.19" r="1.3"/><circle class="cls-16" cx="764.32" cy="190.19" r="1.3"/><circle class="cls-16" cx="775.86" cy="190.19" r="1.3"/><circle class="cls-16" cx="787.4" cy="190.19" r="1.3"/><circle class="cls-16" cx="545.07" cy="200.62" r="1.3"/><circle class="cls-16" cx="556.61" cy="200.62" r="1.3"/><circle class="cls-16" cx="568.15" cy="200.62" r="1.3"/><circle class="cls-16" cx="579.69" cy="200.62" r="1.3"/><circle class="cls-16" cx="591.23" cy="200.62" r="1.3"/><circle class="cls-16" cx="602.77" cy="200.62" r="1.3"/><circle class="cls-16" cx="614.31" cy="200.62" r="1.3"/><circle class="cls-16" cx="625.85" cy="200.62" r="1.3"/><circle class="cls-16" cx="637.39" cy="200.62" r="1.3"/><circle class="cls-16" cx="648.93" cy="200.62" r="1.3"/><circle class="cls-16" cx="660.47" cy="200.62" r="1.3"/><circle class="cls-16" cx="672" cy="200.62" r="1.3"/><circle class="cls-16" cx="683.54" cy="200.62" r="1.3"/><circle class="cls-16" cx="695.08" cy="200.62" r="1.3"/><circle class="cls-16" cx="706.62" cy="200.62" r="1.3"/><circle class="cls-16" cx="718.16" cy="200.62" r="1.3"/><circle class="cls-16" cx="729.7" cy="200.62" r="1.3"/><circle class="cls-16" cx="741.24" cy="200.62" r="1.3"/><circle class="cls-16" cx="752.78" cy="200.62" r="1.3"/><circle class="cls-16" cx="764.32" cy="200.62" r="1.3"/><circle class="cls-16" cx="775.86" cy="200.62" r="1.3"/><circle class="cls-16" cx="787.4" cy="200.62" r="1.3"/><circle class="cls-16" cx="545.07" cy="211.05" r="1.3"/><circle class="cls-16" cx="556.61" cy="211.05" r="1.3"/><circle class="cls-16" cx="568.15" cy="211.05" r="1.3"/><circle class="cls-16" cx="579.69" cy="211.05" r="1.3"/><circle class="cls-16" cx="591.23" cy="211.05" r="1.3"/><circle class="cls-16" cx="602.77" cy="211.05" r="1.3"/><circle class="cls-16" cx="614.31" cy="211.05" r="1.3"/><circle class="cls-16" cx="625.85" cy="211.05" r="1.3"/><circle class="cls-16" cx="637.39" cy="211.05" r="1.3"/><circle class="cls-16" cx="648.93" cy="211.05" r="1.3"/><circle class="cls-16" cx="660.47" cy="211.05" r="1.3"/><circle class="cls-16" cx="672" cy="211.05" r="1.3"/><circle class="cls-16" cx="683.54" cy="211.05" r="1.3"/><circle class="cls-16" cx="695.08" cy="211.05" r="1.3"/><circle class="cls-16" cx="706.62" cy="211.05" r="1.3"/><circle class="cls-16" cx="718.16" cy="211.05" r="1.3"/><circle class="cls-16" cx="729.7" cy="211.05" r="1.3"/><circle class="cls-16" cx="741.24" cy="211.05" r="1.3"/><circle class="cls-16" cx="752.78" cy="211.05" r="1.3"/><circle class="cls-16" cx="764.32" cy="211.05" r="1.3"/><circle class="cls-16" cx="775.86" cy="211.05" r="1.3"/><circle class="cls-16" cx="787.4" cy="211.05" r="1.3"/><circle class="cls-16" cx="168.23" cy="688.71" r="1.3"/><circle class="cls-16" cx="168.23" cy="677.17" r="1.3"/><circle class="cls-16" cx="168.23" cy="665.63" r="1.3"/><circle class="cls-16" cx="168.23" cy="654.1" r="1.3"/><circle class="cls-16" cx="168.23" cy="642.56" r="1.3"/><circle class="cls-16" cx="168.23" cy="631.02" r="1.3"/><circle class="cls-16" cx="168.23" cy="619.48" r="1.3"/><circle class="cls-16" cx="168.23" cy="607.94" r="1.3"/><circle class="cls-16" cx="168.23" cy="596.4" r="1.3"/><circle class="cls-16" cx="168.23" cy="584.86" r="1.3"/><circle class="cls-16" cx="168.23" cy="573.32" r="1.3"/><circle class="cls-16" cx="168.23" cy="561.78" r="1.3"/><circle class="cls-16" cx="168.23" cy="550.24" r="1.3"/><circle class="cls-16" cx="168.23" cy="538.7" r="1.3"/><circle class="cls-16" cx="168.23" cy="527.17" r="1.3"/><circle class="cls-16" cx="168.23" cy="515.63" r="1.3"/><circle class="cls-16" cx="168.23" cy="504.09" r="1.3"/><circle class="cls-16" cx="168.23" cy="492.55" r="1.3"/><circle class="cls-16" cx="168.23" cy="481.01" r="1.3"/><circle class="cls-16" cx="168.23" cy="469.47" r="1.3"/><circle class="cls-16" cx="168.23" cy="457.93" r="1.3"/><circle class="cls-16" cx="168.23" cy="446.39" r="1.3"/><circle class="cls-16" cx="178.66" cy="688.71" r="1.3"/><circle class="cls-16" cx="178.66" cy="677.17" r="1.3"/><circle class="cls-16" cx="178.66" cy="665.63" r="1.3"/><circle class="cls-16" cx="178.66" cy="654.1" r="1.3"/><circle class="cls-16" cx="178.66" cy="642.56" r="1.3"/><circle class="cls-16" cx="178.66" cy="631.02" r="1.3"/><circle class="cls-16" cx="178.66" cy="619.48" r="1.3"/><circle class="cls-16" cx="178.66" cy="607.94" r="1.3"/><circle class="cls-16" cx="178.66" cy="596.4" r="1.3"/><circle class="cls-16" cx="178.66" cy="584.86" r="1.3"/><circle class="cls-16" cx="178.66" cy="573.32" r="1.3"/><circle class="cls-16" cx="178.66" cy="561.78" r="1.3"/><circle class="cls-16" cx="178.66" cy="550.24" r="1.3"/><circle class="cls-16" cx="178.66" cy="538.7" r="1.3"/><circle class="cls-16" cx="178.66" cy="527.17" r="1.3"/><circle class="cls-16" cx="178.66" cy="515.63" r="1.3"/><circle class="cls-16" cx="178.66" cy="504.09" r="1.3"/><circle class="cls-16" cx="178.66" cy="492.55" r="1.3"/><circle class="cls-16" cx="178.66" cy="481.01" r="1.3"/><circle class="cls-16" cx="178.66" cy="469.47" r="1.3"/><circle class="cls-16" cx="178.66" cy="457.93" r="1.3"/><circle class="cls-16" cx="178.66" cy="446.39" r="1.3"/><circle class="cls-16" cx="189.09" cy="688.71" r="1.3"/><circle class="cls-16" cx="189.09" cy="677.17" r="1.3"/><circle class="cls-16" cx="189.09" cy="665.63" r="1.3"/><circle class="cls-16" cx="189.09" cy="654.1" r="1.3"/><circle class="cls-16" cx="189.09" cy="642.56" r="1.3"/><circle class="cls-16" cx="189.09" cy="631.02" r="1.3"/><circle class="cls-16" cx="189.09" cy="619.48" r="1.3"/><circle class="cls-16" cx="189.09" cy="607.94" r="1.3"/><circle class="cls-16" cx="189.09" cy="596.4" r="1.3"/><circle class="cls-16" cx="189.09" cy="584.86" r="1.3"/><circle class="cls-16" cx="189.09" cy="573.32" r="1.3"/><circle class="cls-16" cx="189.09" cy="561.78" r="1.3"/><circle class="cls-16" cx="189.09" cy="550.24" r="1.3"/><circle class="cls-16" cx="189.09" cy="538.7" r="1.3"/><circle class="cls-16" cx="189.09" cy="527.17" r="1.3"/><circle class="cls-16" cx="189.09" cy="515.63" r="1.3"/><circle class="cls-16" cx="189.09" cy="504.09" r="1.3"/><circle class="cls-16" cx="189.09" cy="492.55" r="1.3"/><circle class="cls-16" cx="189.09" cy="481.01" r="1.3"/><circle class="cls-16" cx="189.09" cy="469.47" r="1.3"/><circle class="cls-16" cx="189.09" cy="457.93" r="1.3"/><circle class="cls-16" cx="189.09" cy="446.39" r="1.3"/><circle class="cls-16" cx="199.52" cy="688.71" r="1.3"/><circle class="cls-16" cx="199.52" cy="677.17" r="1.3"/><circle class="cls-16" cx="199.52" cy="665.63" r="1.3"/><circle class="cls-16" cx="199.52" cy="654.1" r="1.3"/><circle class="cls-16" cx="199.52" cy="642.56" r="1.3"/><circle class="cls-16" cx="199.52" cy="631.02" r="1.3"/><circle class="cls-16" cx="199.52" cy="619.48" r="1.3"/><circle class="cls-16" cx="199.52" cy="607.94" r="1.3"/><circle class="cls-16" cx="199.52" cy="596.4" r="1.3"/><circle class="cls-16" cx="199.52" cy="584.86" r="1.3"/><circle class="cls-16" cx="199.52" cy="573.32" r="1.3"/><circle class="cls-16" cx="199.52" cy="561.78" r="1.3"/><circle class="cls-16" cx="199.52" cy="550.24" r="1.3"/><circle class="cls-16" cx="199.52" cy="538.7" r="1.3"/><circle class="cls-16" cx="199.52" cy="527.17" r="1.3"/><circle class="cls-16" cx="199.52" cy="515.63" r="1.3"/><circle class="cls-16" cx="199.52" cy="504.09" r="1.3"/><circle class="cls-16" cx="199.52" cy="492.55" r="1.3"/><circle class="cls-16" cx="199.52" cy="481.01" r="1.3"/><circle class="cls-16" cx="199.52" cy="469.47" r="1.3"/><circle class="cls-16" cx="199.52" cy="457.93" r="1.3"/><circle class="cls-16" cx="199.52" cy="446.39" r="1.3"/><circle class="cls-16" cx="209.95" cy="688.71" r="1.3"/><circle class="cls-16" cx="209.95" cy="677.17" r="1.3"/><circle class="cls-16" cx="209.95" cy="665.63" r="1.3"/><circle class="cls-16" cx="209.95" cy="654.1" r="1.3"/><circle class="cls-16" cx="209.95" cy="642.56" r="1.3"/><circle class="cls-16" cx="209.95" cy="631.02" r="1.3"/><circle class="cls-16" cx="209.95" cy="619.48" r="1.3"/><circle class="cls-16" cx="209.95" cy="607.94" r="1.3"/><circle class="cls-16" cx="209.95" cy="596.4" r="1.3"/><circle class="cls-16" cx="209.95" cy="584.86" r="1.3"/><circle class="cls-16" cx="209.95" cy="573.32" r="1.3"/><circle class="cls-16" cx="209.95" cy="561.78" r="1.3"/><circle class="cls-16" cx="209.95" cy="550.24" r="1.3"/><circle class="cls-16" cx="209.95" cy="538.7" r="1.3"/><circle class="cls-16" cx="209.95" cy="527.17" r="1.3"/><circle class="cls-16" cx="209.95" cy="515.63" r="1.3"/><circle class="cls-16" cx="209.95" cy="504.09" r="1.3"/><circle class="cls-16" cx="209.95" cy="492.55" r="1.3"/><circle class="cls-16" cx="209.95" cy="481.01" r="1.3"/><circle class="cls-16" cx="209.95" cy="469.47" r="1.3"/><circle class="cls-16" cx="209.95" cy="457.93" r="1.3"/><circle class="cls-16" cx="209.95" cy="446.39" r="1.3"/><circle class="cls-16" cx="928.46" cy="549.51" r="1.3"/><circle class="cls-16" cx="916.92" cy="549.51" r="1.3"/><circle class="cls-16" cx="905.38" cy="549.51" r="1.3"/><circle class="cls-16" cx="893.84" cy="549.51" r="1.3"/><circle class="cls-16" cx="882.31" cy="549.51" r="1.3"/><circle class="cls-16" cx="870.77" cy="549.51" r="1.3"/><circle class="cls-16" cx="859.23" cy="549.51" r="1.3"/><circle class="cls-16" cx="847.69" cy="549.51" r="1.3"/><circle class="cls-16" cx="928.46" cy="539.08" r="1.3"/><circle class="cls-16" cx="916.92" cy="539.08" r="1.3"/><circle class="cls-16" cx="905.38" cy="539.08" r="1.3"/><circle class="cls-16" cx="893.84" cy="539.08" r="1.3"/><circle class="cls-16" cx="882.31" cy="539.08" r="1.3"/><circle class="cls-16" cx="870.77" cy="539.08" r="1.3"/><circle class="cls-16" cx="859.23" cy="539.08" r="1.3"/><circle class="cls-16" cx="847.69" cy="539.08" r="1.3"/><circle class="cls-16" cx="928.46" cy="528.65" r="1.3"/><circle class="cls-16" cx="916.92" cy="528.65" r="1.3"/><circle class="cls-16" cx="905.38" cy="528.65" r="1.3"/><circle class="cls-16" cx="893.84" cy="528.65" r="1.3"/><circle class="cls-16" cx="882.31" cy="528.65" r="1.3"/><circle class="cls-16" cx="870.77" cy="528.65" r="1.3"/><circle class="cls-16" cx="859.23" cy="528.65" r="1.3"/><circle class="cls-16" cx="847.69" cy="528.65" r="1.3"/><circle class="cls-16" cx="928.46" cy="518.22" r="1.3"/><circle class="cls-16" cx="916.92" cy="518.22" r="1.3"/><circle class="cls-16" cx="905.38" cy="518.22" r="1.3"/><circle class="cls-16" cx="893.84" cy="518.22" r="1.3"/><circle class="cls-16" cx="882.31" cy="518.22" r="1.3"/><circle class="cls-16" cx="870.77" cy="518.22" r="1.3"/><circle class="cls-16" cx="859.23" cy="518.22" r="1.3"/><circle class="cls-16" cx="847.69" cy="518.22" r="1.3"/><circle class="cls-16" cx="928.46" cy="507.79" r="1.3"/><circle class="cls-16" cx="916.92" cy="507.79" r="1.3"/><circle class="cls-16" cx="905.38" cy="507.79" r="1.3"/><circle class="cls-16" cx="893.84" cy="507.79" r="1.3"/><circle class="cls-16" cx="882.31" cy="507.79" r="1.3"/><circle class="cls-16" cx="870.77" cy="507.79" r="1.3"/><circle class="cls-16" cx="859.23" cy="507.79" r="1.3"/><circle class="cls-16" cx="847.69" cy="507.79" r="1.3"/><circle class="cls-13" cx="123.25" cy="413.9" r="67.23" transform="translate(-133.33 652.34) rotate(-80.7)"/><circle class="cls-9" cx="238.23" cy="235" r="67.23" transform="translate(139.61 615.81) rotate(-80.7)"/><circle class="cls-9" cx="238.23" cy="235" r="59.66" transform="translate(108.28 563.37) rotate(-70.22)"/><circle class="cls-9" cx="238.23" cy="235" r="51.8" transform="translate(139.61 615.81) rotate(-80.7)"/><circle class="cls-13" cx="123.25" cy="309.75" r="17.64" transform="translate(-30.55 565.02) rotate(-80.7)"/><circle class="cls-14" cx="123.25" cy="299.17" r="17.64" transform="matrix(0.16, -0.99, 0.99, 0.16, -20.11, 556.15)"/><circle class="cls-13" cx="564.26" cy="136.95" r="15.42" transform="translate(509.71 855.36) rotate(-80.7)"/><circle class="cls-14" cx="555.01" cy="136.95" r="15.42" transform="translate(501.96 846.23) rotate(-80.7)"/><circle class="cls-15" cx="103.02" cy="115.32" r="15.42" transform="translate(144.36 382.04) rotate(-80.7)"/><circle class="cls-14" cx="103.02" cy="124.57" r="15.42" transform="translate(135.23 389.79) rotate(-80.7)"/><circle class="cls-13" cx="217.44" cy="495.31" r="15.42" transform="translate(-134.7 813.54) rotate(-80.7)"/><circle class="cls-14" cx="229.44" cy="496.55" r="15.42" transform="translate(-125.87 826.42) rotate(-80.7)"/><circle class="cls-15" cx="700.86" cy="403.55" r="15.42" transform="translate(361.14 1213.68) rotate(-80.7)"/><circle class="cls-14" cx="710.11" cy="403.55" r="15.42" transform="translate(368.89 1222.8) rotate(-80.7)"/><circle class="cls-14" cx="123.25" cy="399.02" r="67.23" transform="translate(-118.65 639.86) rotate(-80.7)"/><g class="cls-17"><line class="cls-14" x1="477.82" y1="509.68" x2="111.43" y2="876.08"/><line class="cls-14" x1="487.1" y1="518.96" x2="120.7" y2="885.36"/><line class="cls-14" x1="496.38" y1="528.24" x2="129.98" y2="894.64"/><line class="cls-14" x1="505.66" y1="537.52" x2="139.26" y2="903.91"/><line class="cls-14" x1="514.94" y1="546.79" x2="148.54" y2="913.19"/><line class="cls-14" x1="524.21" y1="556.07" x2="157.81" y2="922.47"/><line class="cls-14" x1="533.49" y1="565.35" x2="167.09" y2="931.75"/><line class="cls-14" x1="542.77" y1="574.63" x2="176.37" y2="941.03"/><line class="cls-14" x1="552.05" y1="583.9" x2="185.65" y2="950.3"/><line class="cls-14" x1="561.32" y1="593.18" x2="194.93" y2="959.58"/><line class="cls-14" x1="570.6" y1="602.46" x2="204.2" y2="968.86"/><line class="cls-14" x1="579.88" y1="611.74" x2="213.48" y2="978.14"/><line class="cls-14" x1="366.75" y1="398.61" x2="0.35" y2="765.01"/><line class="cls-14" x1="376.03" y1="407.89" x2="9.63" y2="774.29"/><line class="cls-14" x1="385.31" y1="417.17" x2="18.91" y2="783.56"/><line class="cls-14" x1="394.59" y1="426.44" x2="28.19" y2="792.84"/><line class="cls-14" x1="403.86" y1="435.72" x2="37.46" y2="802.12"/><line class="cls-14" x1="413.14" y1="445" x2="46.74" y2="811.4"/><line class="cls-14" x1="422.42" y1="454.28" x2="56.02" y2="820.68"/><line class="cls-14" x1="431.7" y1="463.55" x2="65.3" y2="829.95"/><line class="cls-14" x1="440.97" y1="472.83" x2="74.58" y2="839.23"/><line class="cls-14" x1="450.25" y1="482.11" x2="83.85" y2="848.51"/><line class="cls-14" x1="459.53" y1="491.39" x2="93.13" y2="857.79"/><line class="cls-14" x1="468.81" y1="500.67" x2="102.41" y2="867.06"/></g><g class="cls-18"><line class="cls-14" x1="514.34" y1="158.52" x2="194.16" y2="478.7"/><line class="cls-14" x1="522.45" y1="166.63" x2="202.27" y2="486.8"/><line class="cls-14" x1="530.55" y1="174.73" x2="210.38" y2="494.91"/><line class="cls-14" x1="538.66" y1="182.84" x2="218.48" y2="503.02"/><line class="cls-14" x1="546.77" y1="190.95" x2="226.59" y2="511.13"/><line class="cls-14" x1="554.88" y1="199.05" x2="234.7" y2="519.23"/><line class="cls-14" x1="562.98" y1="207.16" x2="242.81" y2="527.34"/><line class="cls-14" x1="571.09" y1="215.27" x2="250.91" y2="535.45"/><line class="cls-14" x1="579.2" y1="223.38" x2="259.02" y2="543.56"/><line class="cls-14" x1="587.31" y1="231.48" x2="267.13" y2="551.66"/><line class="cls-14" x1="595.41" y1="239.59" x2="275.23" y2="559.77"/><line class="cls-14" x1="603.52" y1="247.7" x2="283.34" y2="567.88"/><line class="cls-14" x1="417.28" y1="61.46" x2="97.1" y2="381.64"/><line class="cls-14" x1="425.39" y1="69.57" x2="105.21" y2="389.74"/><line class="cls-14" x1="433.49" y1="77.67" x2="113.32" y2="397.85"/><line class="cls-14" x1="441.6" y1="85.78" x2="121.42" y2="405.96"/><line class="cls-14" x1="449.71" y1="93.89" x2="129.53" y2="414.07"/><line class="cls-14" x1="457.82" y1="101.99" x2="137.64" y2="422.17"/><line class="cls-14" x1="465.92" y1="110.1" x2="145.75" y2="430.28"/><line class="cls-14" x1="474.03" y1="118.21" x2="153.85" y2="438.39"/><line class="cls-14" x1="482.14" y1="126.32" x2="161.96" y2="446.5"/><line class="cls-14" x1="490.25" y1="134.42" x2="170.07" y2="454.6"/><line class="cls-14" x1="498.35" y1="142.53" x2="178.17" y2="462.71"/><line class="cls-14" x1="506.46" y1="150.64" x2="186.28" y2="470.82"/></g><g class="cls-19"><line class="cls-14" x1="927.4" y1="350.08" x2="607.22" y2="670.25"/><line class="cls-14" x1="935.51" y1="358.18" x2="615.33" y2="678.36"/><line class="cls-14" x1="943.61" y1="366.29" x2="623.44" y2="686.47"/><line class="cls-14" x1="951.72" y1="374.4" x2="631.54" y2="694.58"/><line class="cls-14" x1="959.83" y1="382.51" x2="639.65" y2="702.68"/><line class="cls-14" x1="967.94" y1="390.61" x2="647.76" y2="710.79"/><line class="cls-14" x1="976.04" y1="398.72" x2="655.86" y2="718.9"/><line class="cls-14" x1="984.15" y1="406.83" x2="663.97" y2="727.01"/><line class="cls-14" x1="992.26" y1="414.94" x2="672.08" y2="735.11"/><line class="cls-14" x1="1000.37" y1="423.04" x2="680.19" y2="743.22"/><line class="cls-14" x1="1008.47" y1="431.15" x2="688.29" y2="751.33"/><line class="cls-14" x1="1016.58" y1="439.26" x2="696.4" y2="759.44"/><line class="cls-14" x1="830.34" y1="253.02" x2="510.16" y2="573.19"/><line class="cls-14" x1="838.45" y1="261.12" x2="518.27" y2="581.3"/><line class="cls-14" x1="846.55" y1="269.23" x2="526.37" y2="589.41"/><line class="cls-14" x1="854.66" y1="277.34" x2="534.48" y2="597.52"/><line class="cls-14" x1="862.77" y1="285.45" x2="542.59" y2="605.62"/><line class="cls-14" x1="870.88" y1="293.55" x2="550.7" y2="613.73"/><line class="cls-14" x1="878.98" y1="301.66" x2="558.8" y2="621.84"/><line class="cls-14" x1="887.09" y1="309.77" x2="566.91" y2="629.95"/><line class="cls-14" x1="895.2" y1="317.88" x2="575.02" y2="638.05"/><line class="cls-14" x1="903.31" y1="325.98" x2="583.13" y2="646.16"/><line class="cls-14" x1="911.41" y1="334.09" x2="591.23" y2="654.27"/><line class="cls-14" x1="919.52" y1="342.2" x2="599.34" y2="662.38"/></g><path class="cls-13" d="M592.88,97a40,40,0,1,1,0,80v16a56,56,0,1,0,0-112Z" transform="translate(171.8 183.7)"/><path class="cls-14" d="M585.88,97a40,40,0,1,1,0,80v16a56,56,0,1,0,0-112Z" transform="translate(171.8 183.7)"/><path class="cls-15" d="M386,451.09a39.69,39.69,0,1,1,0-79.37V355.84A55.56,55.56,0,1,0,386,467Z" transform="translate(171.8 183.7)"/><path class="cls-14" d="M393,451.09a39.69,39.69,0,1,1,0-79.37V355.84A55.56,55.56,0,1,0,393,467Z" transform="translate(171.8 183.7)"/><path class="cls-13" d="M-30.56,243.53a31.86,31.86,0,1,1,63.72,0H45.9a44.61,44.61,0,0,0-89.21,0Z" transform="translate(171.8 183.7)"/><path class="cls-14" d="M-30.56,249.11a31.86,31.86,0,0,1,63.72,0H45.9a44.61,44.61,0,1,0-89.21,0Z" transform="translate(171.8 183.7)"/><polygon class="cls-16" points="329.11 550.69 322.48 542.55 315.84 550.69 329.11 550.69"/><polygon class="cls-16" points="329.11 533.96 322.48 525.82 315.84 533.96 329.11 533.96"/><polygon class="cls-16" points="329.11 517.23 322.48 509.08 315.84 517.23 329.11 517.23"/><polygon class="cls-16" points="219.45 194.88 225.25 202 231.04 194.88 219.45 194.88"/><polygon class="cls-16" points="219.45 209.5 225.25 216.62 231.04 209.5 219.45 209.5"/><polygon class="cls-16" points="219.45 224.12 225.25 231.24 231.04 224.12 219.45 224.12"/><polygon class="cls-16" points="794.72 314.85 787.6 320.65 794.72 326.45 794.72 314.85"/><polygon class="cls-16" points="780.1 314.85 772.98 320.65 780.1 326.45 780.1 314.85"/><polygon class="cls-16" points="765.48 314.85 758.36 320.65 765.48 326.45 765.48 314.85"/><polygon class="cls-16" points="531.23 600.9 538.34 595.1 531.23 589.3 531.23 600.9"/><polygon class="cls-16" points="545.85 600.9 552.96 595.1 545.85 589.3 545.85 600.9"/><polygon class="cls-16" points="560.47 600.9 567.58 595.1 560.47 589.3 560.47 600.9"/><path class="cls-13" d="M693.63,33.84a28.65,28.65,0,1,1,0-57.3V-34.92a40.11,40.11,0,0,0,0,80.22Z" transform="translate(171.8 183.7)"/><path class="cls-14" d="M698.64,33.84a28.65,28.65,0,1,1,0-57.3V-34.92a40.11,40.11,0,0,0,0,80.22Z" transform="translate(171.8 183.7)"/><polygon class="cls-16" points="852.61 194.69 859.73 188.89 852.61 183.09 852.61 194.69"/><polygon class="cls-16" points="867.23 194.69 874.35 188.89 867.23 183.09 867.23 194.69"/><polygon class="cls-16" points="881.85 194.69 888.97 188.89 881.85 183.09 881.85 194.69"/><rect class="cls-16" x="859.37" y="635.18" width="37.14" height="5.53"/><rect class="cls-16" x="859.37" y="624.85" width="37.14" height="5.53"/><rect class="cls-16" x="859.37" y="614.53" width="37.14" height="5.53"/><rect class="cls-16" x="316.93" y="203.06" width="37.14" height="5.53"/><rect class="cls-16" x="316.93" y="192.73" width="37.14" height="5.53"/><rect class="cls-16" x="316.93" y="182.4" width="37.14" height="5.53"/><line class="cls-20" x1="811.55" y1="550.55" x2="811.55" y2="558.08"/><line class="cls-20" x1="811.55" y1="565.49" x2="811.55" y2="573.02"/><line class="cls-20" x1="800.31" y1="561.78" x2="807.84" y2="561.78"/><line class="cls-20" x1="815.25" y1="561.78" x2="822.78" y2="561.78"/><line class="cls-20" x1="442.73" y1="228.14" x2="442.73" y2="235.67"/><line class="cls-20" x1="442.73" y1="243.08" x2="442.73" y2="250.61"/><line class="cls-20" x1="431.5" y1="239.37" x2="439.03" y2="239.37"/><line class="cls-20" x1="446.44" y1="239.37" x2="453.97" y2="239.37"/><line class="cls-20" x1="682.25" y1="253.41" x2="682.25" y2="260.95"/><line class="cls-20" x1="682.25" y1="268.35" x2="682.25" y2="275.89"/><line class="cls-20" x1="671.01" y1="264.65" x2="678.54" y2="264.65"/><line class="cls-20" x1="685.95" y1="264.65" x2="693.48" y2="264.65"/><line class="cls-20" x1="246.16" y1="488.09" x2="246.16" y2="495.62"/><line class="cls-20" x1="246.16" y1="503.03" x2="246.16" y2="510.56"/><line class="cls-20" x1="234.93" y1="499.33" x2="242.46" y2="499.33"/><line class="cls-20" x1="249.87" y1="499.33" x2="257.4" y2="499.33"/><line class="cls-20" x1="421.26" y1="634.05" x2="421.26" y2="641.59"/><line class="cls-20" x1="421.26" y1="648.99" x2="421.26" y2="656.53"/><line class="cls-20" x1="410.02" y1="645.29" x2="417.56" y2="645.29"/><line class="cls-20" x1="424.96" y1="645.29" x2="432.5" y2="645.29"/><rect class="cls-13" x="621.41" y="585.92" width="39.62" height="6.41"/><rect class="cls-13" x="611.28" y="575.25" width="39.62" height="6.41"/><rect class="cls-14" x="626.47" y="583.79" width="39.62" height="6.41"/><rect class="cls-14" x="616.35" y="573.12" width="39.62" height="6.41"/><rect class="cls-13" x="566.24" y="199.79" width="39.62" height="6.41"/><rect class="cls-13" x="556.12" y="189.12" width="39.62" height="6.41"/><rect class="cls-14" x="571.31" y="197.66" width="39.62" height="6.41"/><rect class="cls-14" x="561.18" y="186.99" width="39.62" height="6.41"/><rect class="cls-15" x="250.41" y="374.92" width="39.62" height="6.41"/><rect class="cls-15" x="240.28" y="364.25" width="39.62" height="6.41"/><rect class="cls-14" x="255.47" y="372.79" width="39.62" height="6.41"/><rect class="cls-14" x="245.35" y="362.11" width="39.62" height="6.41"/><rect class="cls-15" x="869.1" y="468.43" width="39.62" height="6.41"/><rect class="cls-15" x="858.98" y="457.75" width="39.62" height="6.41"/><rect class="cls-14" x="874.17" y="466.3" width="39.62" height="6.41"/><rect class="cls-14" x="864.04" y="455.62" width="39.62" height="6.41"/><rect class="cls-13" x="396.51" y="290.36" width="39.62" height="6.41"/><rect class="cls-13" x="386.39" y="279.69" width="39.62" height="6.41"/><rect class="cls-14" x="401.58" y="288.23" width="39.62" height="6.41"/><rect class="cls-14" x="391.45" y="277.56" width="39.62" height="6.41"/><circle class="cls-10" cx="643.45" cy="254.8" r="36.82" transform="matrix(0.17, -0.99, 0.99, 0.17, 457.26, 1030.78)"/><circle class="cls-11" cx="643.45" cy="254.8" r="30.34" transform="translate(253.22 842.32) rotate(-57.3)"/><circle class="cls-12" cx="643.45" cy="254.8" r="23.53" transform="matrix(0.16, -0.99, 0.99, 0.16, 460.67, 1032.83)"/></g></g></svg>