<svg id="OBJECTS" xmlns="http://www.w3.org/2000/svg" xmlns:xlink="http://www.w3.org/1999/xlink" viewBox="0 0 750 500"><defs><style>.cls-1,.cls-10,.cls-11,.cls-12,.cls-13,.cls-15,.cls-21,.cls-7{fill:none;}.cls-2{opacity:0.6;}.cls-3{clip-path:url(#clip-path);}.cls-4{fill:#fff;}.cls-5{fill:#edf4fe;}.cls-6{clip-path:url(#clip-path-2);}.cls-7{stroke:#edf4fe;}.cls-10,.cls-11,.cls-12,.cls-13,.cls-15,.cls-21,.cls-7{stroke-miterlimit:10;}.cls-8{clip-path:url(#clip-path-3);}.cls-9{clip-path:url(#clip-path-4);}.cls-10,.cls-11,.cls-12,.cls-13{stroke:#96d0d4;}.cls-10{stroke-dasharray:10 10;}.cls-11{stroke-dasharray:9.64 9.64;}.cls-12{stroke-dasharray:9.53 9.53;}.cls-13{stroke-dasharray:10.56 10.56;}.cls-14{fill:#96d0d4;}.cls-15,.cls-21{stroke:#6387a5;}.cls-16{fill:#f58ec2;}.cls-17{fill:#6387a5;}.cls-18{clip-path:url(#clip-path-5);}.cls-19{clip-path:url(#clip-path-6);}.cls-20{clip-path:url(#clip-path-7);}.cls-21{stroke-width:3px;}</style><clipPath id="clip-path"><rect class="cls-1" width="750" height="500"/></clipPath><clipPath id="clip-path-2"><circle class="cls-1" cx="359.95" cy="238.91" r="113.93" transform="translate(66 555.52) rotate(-80.7)"/></clipPath><clipPath id="clip-path-3"><circle class="cls-1" cx="605.49" cy="35.36" r="129.73" transform="translate(472.73 627.18) rotate(-80.7)"/></clipPath><clipPath id="clip-path-4"><circle class="cls-1" cx="273.84" cy="453.66" r="78.74" transform="translate(-218.12 650.58) rotate(-80.7)"/></clipPath><clipPath id="clip-path-5"><circle class="cls-1" cx="123.25" cy="459.11" r="67.15" transform="translate(-349.74 506.54) rotate(-80.7)"/></clipPath><clipPath id="clip-path-6"><circle class="cls-1" cx="182.83" cy="91.16" r="58.68" transform="translate(63.32 256.84) rotate(-80.7)"/></clipPath><clipPath id="clip-path-7"><circle class="cls-1" cx="595.88" cy="282.71" r="58.68" transform="translate(220.58 825.07) rotate(-80.7)"/></clipPath></defs><g class="cls-2"><g class="cls-3"><rect class="cls-4" width="750" height="500"/><path class="cls-5" d="M512.75,537.21H792.56V270.57a196.42,196.42,0,0,0-112.16-35C571.39,235.61,483,324,483,433A196.45,196.45,0,0,0,512.75,537.21Z"/><path class="cls-5" d="M-27.62-41.32V296.19a252.55,252.55,0,0,0,96.44,19c139.86,0,253.24-113.38,253.24-253.24a252.36,252.36,0,0,0-22-103.3Z"/><path class="cls-5" d="M291.43,541.48c.3-3.63.46-7.3.46-11a133.55,133.55,0,0,0-267.09,0c0,3.71.16,7.38.46,11Z"/><g class="cls-6"><line class="cls-7" x1="509.9" y1="123.27" x2="189.72" y2="443.45"/><line class="cls-7" x1="518" y1="131.38" x2="197.83" y2="451.55"/><line class="cls-7" x1="526.11" y1="139.48" x2="205.93" y2="459.66"/><line class="cls-7" x1="534.22" y1="147.59" x2="214.04" y2="467.77"/><line class="cls-7" x1="542.33" y1="155.7" x2="222.15" y2="475.88"/><line class="cls-7" x1="550.43" y1="163.81" x2="230.26" y2="483.98"/><line class="cls-7" x1="558.54" y1="171.91" x2="238.36" y2="492.09"/><line class="cls-7" x1="566.65" y1="180.02" x2="246.47" y2="500.2"/><line class="cls-7" x1="574.76" y1="188.13" x2="254.58" y2="508.31"/><line class="cls-7" x1="582.86" y1="196.24" x2="262.68" y2="516.41"/><line class="cls-7" x1="590.97" y1="204.34" x2="270.79" y2="524.52"/><line class="cls-7" x1="599.08" y1="212.45" x2="278.9" y2="532.63"/><line class="cls-7" x1="412.84" y1="26.21" x2="92.66" y2="346.39"/><line class="cls-7" x1="420.94" y1="34.32" x2="100.77" y2="354.49"/><line class="cls-7" x1="429.05" y1="42.42" x2="108.87" y2="362.6"/><line class="cls-7" x1="437.16" y1="50.53" x2="116.98" y2="370.71"/><line class="cls-7" x1="445.27" y1="58.64" x2="125.09" y2="378.82"/><line class="cls-7" x1="453.37" y1="66.75" x2="133.2" y2="386.92"/><line class="cls-7" x1="461.48" y1="74.85" x2="141.3" y2="395.03"/><line class="cls-7" x1="469.59" y1="82.96" x2="149.41" y2="403.14"/><line class="cls-7" x1="477.7" y1="91.07" x2="157.52" y2="411.25"/><line class="cls-7" x1="485.8" y1="99.18" x2="165.62" y2="419.35"/><line class="cls-7" x1="493.91" y1="107.28" x2="173.73" y2="427.46"/><line class="cls-7" x1="502.02" y1="115.39" x2="181.84" y2="435.57"/></g><g class="cls-8"><line class="cls-7" x1="755.44" y1="-86.29" x2="435.26" y2="233.89"/><line class="cls-7" x1="763.55" y1="-78.18" x2="443.37" y2="242"/><line class="cls-7" x1="771.65" y1="-70.07" x2="451.47" y2="250.11"/><line class="cls-7" x1="779.76" y1="-61.96" x2="459.58" y2="258.21"/><line class="cls-7" x1="787.87" y1="-53.86" x2="467.69" y2="266.32"/><line class="cls-7" x1="795.98" y1="-45.75" x2="475.8" y2="274.43"/><line class="cls-7" x1="804.08" y1="-37.64" x2="483.9" y2="282.54"/><line class="cls-7" x1="812.19" y1="-29.53" x2="492.01" y2="290.64"/><line class="cls-7" x1="820.3" y1="-21.43" x2="500.12" y2="298.75"/><line class="cls-7" x1="828.4" y1="-13.32" x2="508.23" y2="306.86"/><line class="cls-7" x1="836.51" y1="-5.21" x2="516.33" y2="314.97"/><line class="cls-7" x1="844.62" y1="2.9" x2="524.44" y2="323.07"/><line class="cls-7" x1="658.38" y1="-183.35" x2="338.2" y2="136.83"/><line class="cls-7" x1="666.49" y1="-175.24" x2="346.31" y2="144.94"/><line class="cls-7" x1="674.59" y1="-167.13" x2="354.41" y2="153.05"/><line class="cls-7" x1="682.7" y1="-159.02" x2="362.52" y2="161.15"/><line class="cls-7" x1="690.81" y1="-150.92" x2="370.63" y2="169.26"/><line class="cls-7" x1="698.91" y1="-142.81" x2="378.74" y2="177.37"/><line class="cls-7" x1="707.02" y1="-134.7" x2="386.84" y2="185.48"/><line class="cls-7" x1="715.13" y1="-126.59" x2="394.95" y2="193.58"/><line class="cls-7" x1="723.24" y1="-118.49" x2="403.06" y2="201.69"/><line class="cls-7" x1="731.34" y1="-110.38" x2="411.17" y2="209.8"/><line class="cls-7" x1="739.45" y1="-102.27" x2="419.27" y2="217.91"/><line class="cls-7" x1="747.56" y1="-94.16" x2="427.38" y2="226.01"/></g><g class="cls-9"><line class="cls-7" x1="433.56" y1="337.32" x2="113.38" y2="657.5"/><line class="cls-7" x1="441.66" y1="345.43" x2="121.49" y2="665.61"/><line class="cls-7" x1="449.77" y1="353.54" x2="129.59" y2="673.72"/><line class="cls-7" x1="457.88" y1="361.65" x2="137.7" y2="681.82"/><line class="cls-7" x1="465.99" y1="369.75" x2="145.81" y2="689.93"/><line class="cls-7" x1="474.09" y1="377.86" x2="153.92" y2="698.04"/><line class="cls-7" x1="482.2" y1="385.97" x2="162.02" y2="706.15"/><line class="cls-7" x1="490.31" y1="394.08" x2="170.13" y2="714.25"/><line class="cls-7" x1="498.42" y1="402.18" x2="178.24" y2="722.36"/><line class="cls-7" x1="506.52" y1="410.29" x2="186.35" y2="730.47"/><line class="cls-7" x1="514.63" y1="418.4" x2="194.45" y2="738.58"/><line class="cls-7" x1="522.74" y1="426.51" x2="202.56" y2="746.68"/><line class="cls-7" x1="336.5" y1="240.26" x2="16.32" y2="560.44"/><line class="cls-7" x1="344.6" y1="248.37" x2="24.43" y2="568.55"/><line class="cls-7" x1="352.71" y1="256.48" x2="32.53" y2="576.66"/><line class="cls-7" x1="360.82" y1="264.59" x2="40.64" y2="584.76"/><line class="cls-7" x1="368.93" y1="272.69" x2="48.75" y2="592.87"/><line class="cls-7" x1="377.03" y1="280.8" x2="56.86" y2="600.98"/><line class="cls-7" x1="385.14" y1="288.91" x2="64.96" y2="609.09"/><line class="cls-7" x1="393.25" y1="297.02" x2="73.07" y2="617.19"/><line class="cls-7" x1="401.36" y1="305.12" x2="81.18" y2="625.3"/><line class="cls-7" x1="409.46" y1="313.23" x2="89.29" y2="633.41"/><line class="cls-7" x1="417.57" y1="321.34" x2="97.39" y2="641.52"/><line class="cls-7" x1="425.68" y1="329.45" x2="105.5" y2="649.62"/></g><circle class="cls-10" cx="506.74" cy="32.92" r="67.23" transform="translate(392.36 527.68) rotate(-80.7)"/><circle class="cls-10" cx="506.74" cy="32.92" r="59.66" transform="translate(304.32 498.64) rotate(-70.22)"/><circle class="cls-10" cx="506.74" cy="32.92" r="51.8" transform="translate(392.36 527.68) rotate(-80.7)"/><circle class="cls-11" cx="1.3" cy="121.53" r="36.82" transform="matrix(0.17, -0.99, 0.99, 0.17, -118.77, 102.66)"/><circle class="cls-12" cx="1.3" cy="121.53" r="30.34" transform="translate(-101.68 56.97) rotate(-57.3)"/><circle class="cls-13" cx="1.3" cy="121.53" r="23.53" transform="translate(-118.88 103.35) rotate(-80.78)"/><circle class="cls-10" cx="475.76" cy="493.47" r="67.23" transform="translate(-88.12 883.22) rotate(-80.7)"/><circle class="cls-10" cx="475.76" cy="493.47" r="59.66" transform="translate(-149.58 774.22) rotate(-70.22)"/><circle class="cls-10" cx="475.76" cy="493.47" r="51.8" transform="translate(-88.12 883.22) rotate(-80.7)"/><circle class="cls-14" cx="534.82" cy="-11.48" r="58.75" transform="translate(459.72 518.17) rotate(-80.7)"/><circle class="cls-15" cx="543.84" cy="-5.76" r="58.75" transform="translate(461.63 531.87) rotate(-80.7)"/><circle class="cls-16" cx="103.02" cy="17.52" r="71.33" transform="translate(69.08 116.35) rotate(-80.7)"/><path class="cls-16" d="M537,514.7a78.63,78.63,0,1,1,157.26,0h31.45a110.08,110.08,0,1,0-220.16,0Z"/><path class="cls-16" d="M565.49,514.08a50.11,50.11,0,1,1,100.22,0h20a70.16,70.16,0,0,0-140.32,0Z"/><circle class="cls-15" cx="552.68" cy="499.93" r="71.77"/><circle class="cls-15" cx="552.68" cy="499.93" r="96.58" transform="translate(-148.74 248.15) rotate(-22.39)"/><path class="cls-15" d="M552.68,584.11a84.18,84.18,0,1,1,84.18-84.18A84.27,84.27,0,0,1,552.68,584.11Z"/><circle class="cls-15" cx="552.68" cy="499.93" r="71.77"/><circle class="cls-15" cx="552.68" cy="499.93" r="58.46"/><circle class="cls-15" cx="552.68" cy="499.93" r="46.27"/><circle class="cls-15" cx="750" cy="136.95" r="66.85"/><circle class="cls-15" cx="750" cy="136.95" r="89.96" transform="translate(4.36 295.95) rotate(-22.39)"/><path class="cls-15" d="M750,215.35A78.4,78.4,0,1,1,828.4,137,78.49,78.49,0,0,1,750,215.35Z"/><circle class="cls-15" cx="750" cy="136.95" r="66.85"/><circle class="cls-15" cx="750" cy="136.95" r="54.45"/><circle class="cls-15" cx="750" cy="136.95" r="43.09"/><circle class="cls-15" cx="32.96" cy="29.36" r="71.77"/><circle class="cls-15" cx="32.96" cy="29.36" r="96.58" transform="translate(-8.7 14.77) rotate(-22.39)"/><path class="cls-15" d="M33,113.54a84.18,84.18,0,1,1,84.18-84.18A84.28,84.28,0,0,1,33,113.54Z"/><circle class="cls-15" cx="32.96" cy="29.36" r="71.77"/><circle class="cls-15" cx="32.96" cy="29.36" r="58.46"/><circle class="cls-15" cx="32.96" cy="29.36" r="46.27"/><circle class="cls-17" cx="373.28" cy="6.49" r="1.3"/><circle class="cls-17" cx="384.82" cy="6.49" r="1.3"/><circle class="cls-17" cx="396.36" cy="6.49" r="1.3"/><circle class="cls-17" cx="407.89" cy="6.49" r="1.3"/><circle class="cls-17" cx="419.43" cy="6.49" r="1.3"/><circle class="cls-17" cx="430.97" cy="6.49" r="1.3"/><circle class="cls-17" cx="442.51" cy="6.49" r="1.3"/><circle class="cls-17" cx="454.05" cy="6.49" r="1.3"/><circle class="cls-17" cx="465.59" cy="6.49" r="1.3"/><circle class="cls-17" cx="477.13" cy="6.49" r="1.3"/><circle class="cls-17" cx="488.67" cy="6.49" r="1.3"/><circle class="cls-17" cx="500.21" cy="6.49" r="1.3"/><circle class="cls-17" cx="511.75" cy="6.49" r="1.3"/><circle class="cls-17" cx="523.29" cy="6.49" r="1.3"/><circle class="cls-17" cx="534.82" cy="6.49" r="1.3"/><circle class="cls-17" cx="546.36" cy="6.49" r="1.3"/><circle class="cls-17" cx="557.9" cy="6.49" r="1.3"/><circle class="cls-17" cx="569.44" cy="6.49" r="1.3"/><circle class="cls-17" cx="580.98" cy="6.49" r="1.3"/><circle class="cls-17" cx="592.52" cy="6.49" r="1.3"/><circle class="cls-17" cx="604.06" cy="6.49" r="1.3"/><circle class="cls-17" cx="615.6" cy="6.49" r="1.3"/><circle class="cls-17" cx="373.28" cy="16.92" r="1.3"/><circle class="cls-17" cx="384.82" cy="16.92" r="1.3"/><circle class="cls-17" cx="396.36" cy="16.92" r="1.3"/><circle class="cls-17" cx="407.89" cy="16.92" r="1.3"/><circle class="cls-17" cx="419.43" cy="16.92" r="1.3"/><circle class="cls-17" cx="430.97" cy="16.92" r="1.3"/><circle class="cls-17" cx="442.51" cy="16.92" r="1.3"/><circle class="cls-17" cx="454.05" cy="16.92" r="1.3"/><circle class="cls-17" cx="465.59" cy="16.92" r="1.3"/><circle class="cls-17" cx="477.13" cy="16.92" r="1.3"/><circle class="cls-17" cx="488.67" cy="16.92" r="1.3"/><circle class="cls-17" cx="500.21" cy="16.92" r="1.3"/><circle class="cls-17" cx="511.75" cy="16.92" r="1.3"/><circle class="cls-17" cx="523.29" cy="16.92" r="1.3"/><circle class="cls-17" cx="534.82" cy="16.92" r="1.3"/><circle class="cls-17" cx="546.36" cy="16.92" r="1.3"/><circle class="cls-17" cx="557.9" cy="16.92" r="1.3"/><circle class="cls-17" cx="569.44" cy="16.92" r="1.3"/><circle class="cls-17" cx="580.98" cy="16.92" r="1.3"/><circle class="cls-17" cx="592.52" cy="16.92" r="1.3"/><circle class="cls-17" cx="604.06" cy="16.92" r="1.3"/><circle class="cls-17" cx="615.6" cy="16.92" r="1.3"/><circle class="cls-17" cx="373.28" cy="27.35" r="1.3"/><circle class="cls-17" cx="384.82" cy="27.35" r="1.3"/><circle class="cls-17" cx="396.36" cy="27.35" r="1.3"/><circle class="cls-17" cx="407.89" cy="27.35" r="1.3"/><circle class="cls-17" cx="419.43" cy="27.35" r="1.3"/><circle class="cls-17" cx="430.97" cy="27.35" r="1.3"/><circle class="cls-17" cx="442.51" cy="27.35" r="1.3"/><circle class="cls-17" cx="454.05" cy="27.35" r="1.3"/><circle class="cls-17" cx="465.59" cy="27.35" r="1.3"/><circle class="cls-17" cx="477.13" cy="27.35" r="1.3"/><circle class="cls-17" cx="488.67" cy="27.35" r="1.3"/><circle class="cls-17" cx="500.21" cy="27.35" r="1.3"/><circle class="cls-17" cx="511.75" cy="27.35" r="1.3"/><circle class="cls-17" cx="523.29" cy="27.35" r="1.3"/><circle class="cls-17" cx="534.82" cy="27.35" r="1.3"/><circle class="cls-17" cx="546.36" cy="27.35" r="1.3"/><circle class="cls-17" cx="557.9" cy="27.35" r="1.3"/><circle class="cls-17" cx="569.44" cy="27.35" r="1.3"/><circle class="cls-17" cx="580.98" cy="27.35" r="1.3"/><circle class="cls-17" cx="592.52" cy="27.35" r="1.3"/><circle class="cls-17" cx="604.06" cy="27.35" r="1.3"/><circle class="cls-17" cx="615.6" cy="27.35" r="1.3"/><circle class="cls-17" cx="6.86" cy="493.47" r="1.3"/><circle class="cls-17" cx="6.86" cy="481.94" r="1.3"/><circle class="cls-17" cx="6.86" cy="470.4" r="1.3"/><circle class="cls-17" cx="6.86" cy="458.86" r="1.3"/><circle class="cls-17" cx="6.86" cy="447.32" r="1.3"/><circle class="cls-17" cx="6.86" cy="435.78" r="1.3"/><circle class="cls-17" cx="6.86" cy="424.24" r="1.3"/><circle class="cls-17" cx="6.86" cy="412.7" r="1.3"/><circle class="cls-17" cx="6.86" cy="401.16" r="1.3"/><circle class="cls-17" cx="6.86" cy="389.62" r="1.3"/><circle class="cls-17" cx="6.86" cy="378.08" r="1.3"/><circle class="cls-17" cx="6.86" cy="366.54" r="1.3"/><circle class="cls-17" cx="6.86" cy="355.01" r="1.3"/><circle class="cls-17" cx="6.86" cy="343.47" r="1.3"/><circle class="cls-17" cx="6.86" cy="331.93" r="1.3"/><circle class="cls-17" cx="6.86" cy="320.39" r="1.3"/><circle class="cls-17" cx="6.86" cy="308.85" r="1.3"/><circle class="cls-17" cx="6.86" cy="297.31" r="1.3"/><circle class="cls-17" cx="6.86" cy="285.77" r="1.3"/><circle class="cls-17" cx="6.86" cy="274.23" r="1.3"/><circle class="cls-17" cx="6.86" cy="262.69" r="1.3"/><circle class="cls-17" cx="17.29" cy="493.47" r="1.3"/><circle class="cls-17" cx="17.29" cy="481.94" r="1.3"/><circle class="cls-17" cx="17.29" cy="470.4" r="1.3"/><circle class="cls-17" cx="17.29" cy="458.86" r="1.3"/><circle class="cls-17" cx="17.29" cy="447.32" r="1.3"/><circle class="cls-17" cx="17.29" cy="435.78" r="1.3"/><circle class="cls-17" cx="17.29" cy="424.24" r="1.3"/><circle class="cls-17" cx="17.29" cy="412.7" r="1.3"/><circle class="cls-17" cx="17.29" cy="401.16" r="1.3"/><circle class="cls-17" cx="17.29" cy="389.62" r="1.3"/><circle class="cls-17" cx="17.29" cy="378.08" r="1.3"/><circle class="cls-17" cx="17.29" cy="366.54" r="1.3"/><circle class="cls-17" cx="17.29" cy="355.01" r="1.3"/><circle class="cls-17" cx="17.29" cy="343.47" r="1.3"/><circle class="cls-17" cx="17.29" cy="331.93" r="1.3"/><circle class="cls-17" cx="17.29" cy="320.39" r="1.3"/><circle class="cls-17" cx="17.29" cy="308.85" r="1.3"/><circle class="cls-17" cx="17.29" cy="297.31" r="1.3"/><circle class="cls-17" cx="17.29" cy="285.77" r="1.3"/><circle class="cls-17" cx="17.29" cy="274.23" r="1.3"/><circle class="cls-17" cx="17.29" cy="262.69" r="1.3"/><circle class="cls-17" cx="27.72" cy="493.47" r="1.3"/><circle class="cls-17" cx="27.72" cy="481.94" r="1.3"/><circle class="cls-17" cx="27.72" cy="470.4" r="1.3"/><circle class="cls-17" cx="27.72" cy="458.86" r="1.3"/><circle class="cls-17" cx="27.72" cy="447.32" r="1.3"/><circle class="cls-17" cx="27.72" cy="435.78" r="1.3"/><circle class="cls-17" cx="27.72" cy="424.24" r="1.3"/><circle class="cls-17" cx="27.72" cy="412.7" r="1.3"/><circle class="cls-17" cx="27.72" cy="401.16" r="1.3"/><circle class="cls-17" cx="27.72" cy="389.62" r="1.3"/><circle class="cls-17" cx="27.72" cy="378.08" r="1.3"/><circle class="cls-17" cx="27.72" cy="366.54" r="1.3"/><circle class="cls-17" cx="27.72" cy="355.01" r="1.3"/><circle class="cls-17" cx="27.72" cy="343.47" r="1.3"/><circle class="cls-17" cx="27.72" cy="331.93" r="1.3"/><circle class="cls-17" cx="27.72" cy="320.39" r="1.3"/><circle class="cls-17" cx="27.72" cy="308.85" r="1.3"/><circle class="cls-17" cx="27.72" cy="297.31" r="1.3"/><circle class="cls-17" cx="27.72" cy="285.77" r="1.3"/><circle class="cls-17" cx="27.72" cy="274.23" r="1.3"/><circle class="cls-17" cx="27.72" cy="262.69" r="1.3"/><circle class="cls-17" cx="38.15" cy="493.47" r="1.3"/><circle class="cls-17" cx="38.15" cy="481.94" r="1.3"/><circle class="cls-17" cx="38.15" cy="470.4" r="1.3"/><circle class="cls-17" cx="38.15" cy="458.86" r="1.3"/><circle class="cls-17" cx="38.15" cy="447.32" r="1.3"/><circle class="cls-17" cx="38.15" cy="435.78" r="1.3"/><circle class="cls-17" cx="38.15" cy="424.24" r="1.3"/><circle class="cls-17" cx="38.15" cy="412.7" r="1.3"/><circle class="cls-17" cx="38.15" cy="401.16" r="1.3"/><circle class="cls-17" cx="38.15" cy="389.62" r="1.3"/><circle class="cls-17" cx="38.15" cy="378.08" r="1.3"/><circle class="cls-17" cx="38.15" cy="366.54" r="1.3"/><circle class="cls-17" cx="38.15" cy="355.01" r="1.3"/><circle class="cls-17" cx="38.15" cy="343.47" r="1.3"/><circle class="cls-17" cx="38.15" cy="331.93" r="1.3"/><circle class="cls-17" cx="38.15" cy="320.39" r="1.3"/><circle class="cls-17" cx="38.15" cy="308.85" r="1.3"/><circle class="cls-17" cx="38.15" cy="297.31" r="1.3"/><circle class="cls-17" cx="38.15" cy="285.77" r="1.3"/><circle class="cls-17" cx="38.15" cy="274.23" r="1.3"/><circle class="cls-17" cx="38.15" cy="262.69" r="1.3"/><circle class="cls-17" cx="745.13" cy="365.81" r="1.3"/><circle class="cls-17" cx="733.59" cy="365.81" r="1.3"/><circle class="cls-17" cx="722.05" cy="365.81" r="1.3"/><circle class="cls-17" cx="710.51" cy="365.81" r="1.3"/><circle class="cls-17" cx="698.97" cy="365.81" r="1.3"/><circle class="cls-17" cx="687.43" cy="365.81" r="1.3"/><circle class="cls-17" cx="675.89" cy="365.81" r="1.3"/><circle class="cls-17" cx="745.13" cy="355.38" r="1.3"/><circle class="cls-17" cx="733.59" cy="355.38" r="1.3"/><circle class="cls-17" cx="722.05" cy="355.38" r="1.3"/><circle class="cls-17" cx="710.51" cy="355.38" r="1.3"/><circle class="cls-17" cx="698.97" cy="355.38" r="1.3"/><circle class="cls-17" cx="687.43" cy="355.38" r="1.3"/><circle class="cls-17" cx="675.89" cy="355.38" r="1.3"/><circle class="cls-17" cx="745.13" cy="344.95" r="1.3"/><circle class="cls-17" cx="733.59" cy="344.95" r="1.3"/><circle class="cls-17" cx="722.05" cy="344.95" r="1.3"/><circle class="cls-17" cx="710.51" cy="344.95" r="1.3"/><circle class="cls-17" cx="698.97" cy="344.95" r="1.3"/><circle class="cls-17" cx="687.43" cy="344.95" r="1.3"/><circle class="cls-17" cx="675.89" cy="344.95" r="1.3"/><circle class="cls-17" cx="745.13" cy="334.52" r="1.3"/><circle class="cls-17" cx="733.59" cy="334.52" r="1.3"/><circle class="cls-17" cx="722.05" cy="334.52" r="1.3"/><circle class="cls-17" cx="710.51" cy="334.52" r="1.3"/><circle class="cls-17" cx="698.97" cy="334.52" r="1.3"/><circle class="cls-17" cx="687.43" cy="334.52" r="1.3"/><circle class="cls-17" cx="675.89" cy="334.52" r="1.3"/><circle class="cls-17" cx="745.13" cy="324.09" r="1.3"/><circle class="cls-17" cx="733.59" cy="324.09" r="1.3"/><circle class="cls-17" cx="722.05" cy="324.09" r="1.3"/><circle class="cls-17" cx="710.51" cy="324.09" r="1.3"/><circle class="cls-17" cx="698.97" cy="324.09" r="1.3"/><circle class="cls-17" cx="687.43" cy="324.09" r="1.3"/><circle class="cls-17" cx="675.89" cy="324.09" r="1.3"/><circle class="cls-14" cx="123.25" cy="413.9" r="67.23" transform="translate(-305.13 468.64) rotate(-80.7)"/><circle class="cls-10" cx="238.23" cy="235" r="67.23" transform="translate(-32.19 432.11) rotate(-80.7)"/><circle class="cls-10" cx="238.23" cy="235" r="59.66" transform="translate(-63.51 379.67) rotate(-70.22)"/><circle class="cls-10" cx="238.23" cy="235" r="51.8" transform="translate(-32.19 432.11) rotate(-80.7)"/><circle class="cls-14" cx="123.25" cy="309.75" r="17.64" transform="translate(-202.35 381.32) rotate(-80.7)"/><circle class="cls-15" cx="123.25" cy="299.17" r="17.64" transform="matrix(0.16, -0.99, 0.99, 0.16, -191.9, 372.45)"/><circle class="cls-14" cx="564.26" cy="136.95" r="15.42" transform="translate(337.91 671.66) rotate(-80.7)"/><circle class="cls-15" cx="555.01" cy="136.95" r="15.42" transform="translate(330.16 662.53) rotate(-80.7)"/><circle class="cls-16" cx="103.02" cy="115.32" r="15.42" transform="translate(-27.44 198.34) rotate(-80.7)"/><circle class="cls-15" cx="103.02" cy="124.57" r="15.42" transform="translate(-36.56 206.09) rotate(-80.7)"/><circle class="cls-14" cx="217.44" cy="495.31" r="15.42" transform="translate(-306.5 629.84) rotate(-80.7)"/><circle class="cls-15" cx="229.44" cy="496.55" r="15.42" transform="translate(-297.67 642.72) rotate(-80.7)"/><circle class="cls-16" cx="700.86" cy="403.55" r="15.42" transform="translate(189.34 1029.98) rotate(-80.7)"/><circle class="cls-15" cx="710.11" cy="403.55" r="15.42" transform="translate(197.09 1039.1) rotate(-80.7)"/><circle class="cls-15" cx="123.25" cy="399.02" r="67.23" transform="translate(-290.45 456.17) rotate(-80.7)"/><g class="cls-18"><line class="cls-15" x1="306.03" y1="325.98" x2="-60.37" y2="692.38"/><line class="cls-15" x1="315.31" y1="335.26" x2="-51.09" y2="701.66"/><line class="cls-15" x1="324.58" y1="344.54" x2="-41.82" y2="710.94"/><line class="cls-15" x1="333.86" y1="353.82" x2="-32.54" y2="720.21"/><line class="cls-15" x1="343.14" y1="363.09" x2="-23.26" y2="729.49"/><line class="cls-15" x1="352.42" y1="372.37" x2="-13.98" y2="738.77"/><line class="cls-15" x1="361.69" y1="381.65" x2="-4.7" y2="748.05"/><line class="cls-15" x1="370.97" y1="390.93" x2="4.57" y2="757.33"/><line class="cls-15" x1="380.25" y1="400.2" x2="13.85" y2="766.6"/><line class="cls-15" x1="389.53" y1="409.48" x2="23.13" y2="775.88"/><line class="cls-15" x1="398.81" y1="418.76" x2="32.41" y2="785.16"/><line class="cls-15" x1="408.08" y1="428.04" x2="41.68" y2="794.44"/><line class="cls-15" x1="194.96" y1="214.91" x2="-171.44" y2="581.31"/><line class="cls-15" x1="204.23" y1="224.19" x2="-162.17" y2="590.59"/><line class="cls-15" x1="213.51" y1="233.47" x2="-152.89" y2="599.87"/><line class="cls-15" x1="222.79" y1="242.74" x2="-143.61" y2="609.14"/><line class="cls-15" x1="232.07" y1="252.02" x2="-134.33" y2="618.42"/><line class="cls-15" x1="241.34" y1="261.3" x2="-125.05" y2="627.7"/><line class="cls-15" x1="250.62" y1="270.58" x2="-115.78" y2="636.98"/><line class="cls-15" x1="259.9" y1="279.86" x2="-106.5" y2="646.25"/><line class="cls-15" x1="269.18" y1="289.13" x2="-97.22" y2="655.53"/><line class="cls-15" x1="278.46" y1="298.41" x2="-87.94" y2="664.81"/><line class="cls-15" x1="287.73" y1="307.69" x2="-78.67" y2="674.09"/><line class="cls-15" x1="297.01" y1="316.97" x2="-69.39" y2="683.37"/></g><g class="cls-19"><line class="cls-15" x1="342.54" y1="-25.18" x2="22.36" y2="295"/><line class="cls-15" x1="350.65" y1="-17.07" x2="30.47" y2="303.1"/><line class="cls-15" x1="358.76" y1="-8.97" x2="38.58" y2="311.21"/><line class="cls-15" x1="366.86" y1="-0.86" x2="46.69" y2="319.32"/><line class="cls-15" x1="374.97" y1="7.25" x2="54.79" y2="327.43"/><line class="cls-15" x1="383.08" y1="15.36" x2="62.9" y2="335.53"/><line class="cls-15" x1="391.19" y1="23.46" x2="71.01" y2="343.64"/><line class="cls-15" x1="399.29" y1="31.57" x2="79.12" y2="351.75"/><line class="cls-15" x1="407.4" y1="39.68" x2="87.22" y2="359.86"/><line class="cls-15" x1="415.51" y1="47.79" x2="95.33" y2="367.96"/><line class="cls-15" x1="423.62" y1="55.89" x2="103.44" y2="376.07"/><line class="cls-15" x1="431.72" y1="64" x2="111.55" y2="384.18"/><line class="cls-15" x1="245.48" y1="-122.24" x2="-74.7" y2="197.94"/><line class="cls-15" x1="253.59" y1="-114.13" x2="-66.59" y2="206.04"/><line class="cls-15" x1="261.7" y1="-106.03" x2="-58.48" y2="214.15"/><line class="cls-15" x1="269.8" y1="-97.92" x2="-50.37" y2="222.26"/><line class="cls-15" x1="277.91" y1="-89.81" x2="-42.27" y2="230.37"/><line class="cls-15" x1="286.02" y1="-81.7" x2="-34.16" y2="238.47"/><line class="cls-15" x1="294.13" y1="-73.6" x2="-26.05" y2="246.58"/><line class="cls-15" x1="302.23" y1="-65.49" x2="-17.94" y2="254.69"/><line class="cls-15" x1="310.34" y1="-57.38" x2="-9.84" y2="262.8"/><line class="cls-15" x1="318.45" y1="-49.28" x2="-1.73" y2="270.9"/><line class="cls-15" x1="326.56" y1="-41.17" x2="6.38" y2="279.01"/><line class="cls-15" x1="334.66" y1="-33.06" x2="14.49" y2="287.12"/></g><g class="cls-20"><line class="cls-15" x1="755.6" y1="166.38" x2="435.42" y2="486.56"/><line class="cls-15" x1="763.71" y1="174.48" x2="443.53" y2="494.66"/><line class="cls-15" x1="771.82" y1="182.59" x2="451.64" y2="502.77"/><line class="cls-15" x1="779.92" y1="190.7" x2="459.75" y2="510.88"/><line class="cls-15" x1="788.03" y1="198.81" x2="467.85" y2="518.98"/><line class="cls-15" x1="796.14" y1="206.91" x2="475.96" y2="527.09"/><line class="cls-15" x1="804.25" y1="215.02" x2="484.07" y2="535.2"/><line class="cls-15" x1="812.35" y1="223.13" x2="492.18" y2="543.31"/><line class="cls-15" x1="820.46" y1="231.24" x2="500.28" y2="551.41"/><line class="cls-15" x1="828.57" y1="239.34" x2="508.39" y2="559.52"/><line class="cls-15" x1="836.68" y1="247.45" x2="516.5" y2="567.63"/><line class="cls-15" x1="844.78" y1="255.56" x2="524.6" y2="575.74"/><line class="cls-15" x1="658.54" y1="69.32" x2="338.36" y2="389.5"/><line class="cls-15" x1="666.65" y1="77.42" x2="346.47" y2="397.6"/><line class="cls-15" x1="674.76" y1="85.53" x2="354.58" y2="405.71"/><line class="cls-15" x1="682.86" y1="93.64" x2="362.69" y2="413.82"/><line class="cls-15" x1="690.97" y1="101.75" x2="370.79" y2="421.92"/><line class="cls-15" x1="699.08" y1="109.85" x2="378.9" y2="430.03"/><line class="cls-15" x1="707.19" y1="117.96" x2="387.01" y2="438.14"/><line class="cls-15" x1="715.29" y1="126.07" x2="395.12" y2="446.25"/><line class="cls-15" x1="723.4" y1="134.18" x2="403.22" y2="454.35"/><line class="cls-15" x1="731.51" y1="142.28" x2="411.33" y2="462.46"/><line class="cls-15" x1="739.62" y1="150.39" x2="419.44" y2="470.57"/><line class="cls-15" x1="747.72" y1="158.5" x2="427.54" y2="478.68"/></g><path class="cls-14" d="M592.88,97a40,40,0,1,1,0,80v16a56,56,0,1,0,0-112Z"/><path class="cls-15" d="M585.88,97a40,40,0,1,1,0,80v16a56,56,0,1,0,0-112Z"/><path class="cls-16" d="M386,451.09a39.69,39.69,0,1,1,0-79.37V355.84A55.56,55.56,0,1,0,386,467Z"/><path class="cls-15" d="M393,451.09a39.69,39.69,0,1,1,0-79.37V355.84A55.56,55.56,0,1,0,393,467Z"/><path class="cls-14" d="M-30.56,243.53a31.86,31.86,0,1,1,63.72,0H45.9a44.61,44.61,0,0,0-89.21,0Z"/><path class="cls-15" d="M-30.56,249.11a31.86,31.86,0,0,1,63.72,0H45.9a44.61,44.61,0,1,0-89.21,0Z"/><polygon class="cls-17" points="157.32 366.99 150.68 358.85 144.05 366.99 157.32 366.99"/><polygon class="cls-17" points="157.32 350.26 150.68 342.12 144.05 350.26 157.32 350.26"/><polygon class="cls-17" points="157.32 333.53 150.68 325.38 144.05 333.53 157.32 333.53"/><polygon class="cls-17" points="47.65 11.18 53.45 18.3 59.25 11.18 47.65 11.18"/><polygon class="cls-17" points="47.65 25.8 53.45 32.92 59.25 25.8 47.65 25.8"/><polygon class="cls-17" points="47.65 40.42 53.45 47.54 59.25 40.42 47.65 40.42"/><polygon class="cls-17" points="622.92 131.15 615.81 136.95 622.92 142.75 622.92 131.15"/><polygon class="cls-17" points="608.3 131.15 601.19 136.95 608.3 142.75 608.3 131.15"/><polygon class="cls-17" points="593.68 131.15 586.57 136.95 593.68 142.75 593.68 131.15"/><polygon class="cls-17" points="359.43 417.2 366.55 411.4 359.43 405.61 359.43 417.2"/><polygon class="cls-17" points="374.05 417.2 381.17 411.4 374.05 405.61 374.05 417.2"/><polygon class="cls-17" points="388.67 417.2 395.79 411.4 388.67 405.61 388.67 417.2"/><path class="cls-14" d="M693.63,33.84a28.65,28.65,0,1,1,0-57.3V-34.92a40.11,40.11,0,0,0,0,80.22Z"/><path class="cls-15" d="M698.64,33.84a28.65,28.65,0,1,1,0-57.3V-34.92a40.11,40.11,0,0,0,0,80.22Z"/><polygon class="cls-17" points="680.82 10.99 687.93 5.19 680.82 -0.6 680.82 10.99"/><polygon class="cls-17" points="695.44 10.99 702.55 5.19 695.44 -0.6 695.44 10.99"/><polygon class="cls-17" points="710.06 10.99 717.17 5.19 710.06 -0.6 710.06 10.99"/><rect class="cls-17" x="687.58" y="451.49" width="37.14" height="5.53"/><rect class="cls-17" x="687.58" y="441.16" width="37.14" height="5.53"/><rect class="cls-17" x="687.58" y="430.83" width="37.14" height="5.53"/><rect class="cls-17" x="145.14" y="19.36" width="37.14" height="5.53"/><rect class="cls-17" x="145.14" y="9.03" width="37.14" height="5.53"/><rect class="cls-17" x="145.14" y="-1.3" width="37.14" height="5.53"/><line class="cls-21" x1="639.75" y1="366.85" x2="639.75" y2="374.38"/><line class="cls-21" x1="639.75" y1="381.79" x2="639.75" y2="389.32"/><line class="cls-21" x1="628.51" y1="378.08" x2="636.05" y2="378.08"/><line class="cls-21" x1="643.45" y1="378.08" x2="650.99" y2="378.08"/><line class="cls-21" x1="270.94" y1="44.44" x2="270.94" y2="51.97"/><line class="cls-21" x1="270.94" y1="59.38" x2="270.94" y2="66.91"/><line class="cls-21" x1="259.7" y1="55.68" x2="267.23" y2="55.68"/><line class="cls-21" x1="274.64" y1="55.68" x2="282.17" y2="55.68"/><line class="cls-21" x1="510.45" y1="69.71" x2="510.45" y2="77.25"/><line class="cls-21" x1="510.45" y1="84.65" x2="510.45" y2="92.19"/><line class="cls-21" x1="499.21" y1="80.95" x2="506.74" y2="80.95"/><line class="cls-21" x1="514.15" y1="80.95" x2="521.69" y2="80.95"/><line class="cls-21" x1="74.37" y1="304.39" x2="74.37" y2="311.92"/><line class="cls-21" x1="74.37" y1="319.33" x2="74.37" y2="326.86"/><line class="cls-21" x1="63.13" y1="315.63" x2="70.66" y2="315.63"/><line class="cls-21" x1="78.07" y1="315.63" x2="85.6" y2="315.63"/><line class="cls-21" x1="249.46" y1="450.35" x2="249.46" y2="457.89"/><line class="cls-21" x1="249.46" y1="465.29" x2="249.46" y2="472.83"/><line class="cls-21" x1="238.23" y1="461.59" x2="245.76" y2="461.59"/><line class="cls-21" x1="253.17" y1="461.59" x2="260.7" y2="461.59"/><rect class="cls-14" x="449.61" y="402.22" width="39.62" height="6.41"/><rect class="cls-14" x="439.49" y="391.55" width="39.62" height="6.41"/><rect class="cls-15" x="454.67" y="400.09" width="39.62" height="6.41"/><rect class="cls-15" x="444.55" y="389.42" width="39.62" height="6.41"/><rect class="cls-14" x="394.45" y="16.09" width="39.62" height="6.41"/><rect class="cls-14" x="384.32" y="5.42" width="39.62" height="6.41"/><rect class="cls-15" x="399.51" y="13.96" width="39.62" height="6.41"/><rect class="cls-15" x="389.38" y="3.29" width="39.62" height="6.41"/><rect class="cls-16" x="78.61" y="191.22" width="39.62" height="6.41"/><rect class="cls-16" x="68.49" y="180.55" width="39.62" height="6.41"/><rect class="cls-15" x="83.67" y="189.09" width="39.62" height="6.41"/><rect class="cls-15" x="73.55" y="178.41" width="39.62" height="6.41"/><rect class="cls-16" x="697.31" y="284.73" width="39.62" height="6.41"/><rect class="cls-16" x="687.18" y="274.05" width="39.62" height="6.41"/><rect class="cls-15" x="702.37" y="282.6" width="39.62" height="6.41"/><rect class="cls-15" x="692.25" y="271.92" width="39.62" height="6.41"/><rect class="cls-14" x="224.72" y="106.66" width="39.62" height="6.41"/><rect class="cls-14" x="214.59" y="95.99" width="39.62" height="6.41"/><rect class="cls-15" x="229.78" y="104.53" width="39.62" height="6.41"/><rect class="cls-15" x="219.65" y="93.86" width="39.62" height="6.41"/><circle class="cls-11" cx="643.45" cy="254.8" r="36.82" transform="matrix(0.17, -0.99, 0.99, 0.17, 285.47, 847.08)"/><circle class="cls-12" cx="643.45" cy="254.8" r="30.34" transform="translate(81.42 658.62) rotate(-57.3)"/><circle class="cls-13" cx="643.45" cy="254.8" r="23.53" transform="matrix(0.16, -0.99, 0.99, 0.16, 288.88, 849.13)"/></g></g></svg>